#N canvas 1940 319 437 334 10;
#X text 10 10 META this is a prototype of a libdir meta file;
#X text 10 30 NAME freeverb;
#X text 10 90 DESCRIPTION Freeverb is a simple implementation of the
standard Schroeder/Moorer reverb model;
#X text 10 130 LICENSE GNU GPL;
#X text 10 50 AUTHOR Olaf Matthes and Jezar Wakefield;
#X text 10 70 MAINTAINER Fred Jan Kraan <fjkraan@electrickery.nl>;
#X text 10 150 VERSION 1.3.0;
